<svg width="23" height="14" viewBox="0 0 23 14" fill="none" xmlns="http://www.w3.org/2000/svg">
<path d="M16.3464 10.0336C16.1699 10.0336 15.9975 9.98019 15.8508 9.88031C15.7041 9.78044 15.5898 9.63844 15.5223 9.47231C15.4548 9.30619 15.4371 9.12344 15.4715 8.94706C15.506 8.77081 15.5909 8.60881 15.7156 8.48169C15.8404 8.35456 15.9993 8.26794 16.1724 8.23281C16.3454 8.19781 16.5246 8.21581 16.6876 8.28456C16.8506 8.35344 16.99 8.46994 17.088 8.61944C17.186 8.76894 17.2383 8.94469 17.2383 9.12444C17.2383 9.36556 17.1443 9.59681 16.977 9.76731C16.8098 9.93781 16.5829 10.0336 16.3464 10.0336ZM6.52577 10.0336C6.34939 10.0336 6.17689 9.98019 6.03027 9.88031C5.88364 9.78044 5.76927 9.63844 5.70177 9.47231C5.63427 9.30619 5.61664 9.12344 5.65102 8.94706C5.68539 8.77081 5.77039 8.60881 5.89514 8.48169C6.01989 8.35456 6.17877 8.26794 6.35177 8.23281C6.52477 8.19781 6.70414 8.21581 6.86714 8.28456C7.03014 8.35344 7.16939 8.46994 7.26739 8.61944C7.36539 8.76894 7.41777 8.94469 7.41777 9.12444C7.41777 9.36556 7.32377 9.59681 7.15652 9.76731C6.98927 9.93781 6.76239 10.0336 6.52577 10.0336ZM16.6623 4.57906L18.4461 1.44454C18.4701 1.40162 18.4856 1.35427 18.4918 1.30524C18.4978 1.25619 18.4943 1.2064 18.4814 1.15874C18.4686 1.11106 18.4466 1.06646 18.4168 1.02749C18.3869 0.988499 18.3499 0.955911 18.3076 0.931586C18.2654 0.907261 18.2189 0.891686 18.1708 0.885736C18.1225 0.879786 18.0738 0.883598 18.027 0.896948C17.9804 0.910298 17.9366 0.932911 17.8986 0.963511C17.8605 0.994099 17.8286 1.03207 17.805 1.07522L16.0026 4.24757C14.571 3.58081 13.0146 3.23835 11.4408 3.24379C9.86489 3.23985 8.30652 3.57885 6.86952 4.2381L5.06714 1.06575C5.01877 0.979611 4.93902 0.916486 4.84514 0.890161C4.75127 0.863836 4.65102 0.876461 4.56627 0.925286C4.48152 0.974111 4.41927 1.05515 4.39289 1.15067C4.36664 1.24621 4.37852 1.34846 4.42602 1.43507L6.20064 4.56956C4.66627 5.42244 3.36482 6.65194 2.41415 8.14669C1.46349 9.64144 0.893616 11.3543 0.756104 13.1302L22.0975 13.1302C21.9641 11.3556 21.3969 9.64331 20.4475 8.14956C19.4981 6.65594 18.1968 5.42831 16.6623 4.57906Z" fill="white"/>
</svg>
