<svg width="14" height="13" viewBox="0 0 14 13" fill="none" xmlns="http://www.w3.org/2000/svg">
<path d="M11.4844 4.92347C11.4653 2.87047 13.2326 1.87173 13.3135 1.82523C12.3125 0.421992 10.761 0.230267 10.2158 0.21498C8.91275 0.0831299 7.64875 0.964692 6.985 0.964692C6.308 0.964692 5.28575 0.227718 4.18413 0.24938C2.7665 0.270405 1.44024 1.0596 0.712866 2.28512C-0.78826 4.78397 0.331291 8.45609 1.76949 10.4758C2.48892 11.4651 3.32963 12.5696 4.42988 12.5307C5.50638 12.4881 5.9085 11.8708 7.20763 11.8708C8.49475 11.8708 8.87238 12.5307 9.9945 12.5058C11.1499 12.4881 11.8773 11.5122 12.5715 10.5141C13.4029 9.38034 13.7368 8.26372 13.75 8.20634C13.7229 8.19747 11.5063 7.38409 11.4844 4.92347Z" fill="white"/>
</svg>
