<svg width="14" height="15" viewBox="0 0 14 15" fill="none" xmlns="http://www.w3.org/2000/svg">
<path d="M9 7.03174C9 8.13631 8.10457 9.03174 7 9.03174C5.89543 9.03174 5 8.13631 5 7.03174C5 5.92717 5.89543 5.03174 7 5.03174C8.10457 5.03174 9 5.92717 9 7.03174Z" fill="white"/>
<path fill-rule="evenodd" clip-rule="evenodd" d="M4 0.0317383C1.79086 0.0317383 0 1.8226 0 4.03174L0 10.0317C0 12.2409 1.79086 14.0317 4 14.0317H10C12.2091 14.0317 14 12.2409 14 10.0317V4.03174C14 1.8226 12.2091 0.0317383 10 0.0317383H4ZM11 4.03174C11.5523 4.03174 12 3.58402 12 3.03174C12 2.47945 11.5523 2.03174 11 2.03174C10.4477 2.03174 10 2.47945 10 3.03174C10 3.58402 10.4477 4.03174 11 4.03174ZM11 7.03174C11 9.24088 9.20914 11.0317 7 11.0317C4.79086 11.0317 3 9.24088 3 7.03174C3 4.8226 4.79086 3.03174 7 3.03174C9.20914 3.03174 11 4.8226 11 7.03174Z" fill="white"/>
</svg>
