<svg width="16" height="9" viewBox="0 0 16 9" fill="none" xmlns="http://www.w3.org/2000/svg">
<path d="M15.8574 7.16723C15.8144 7.10414 15.5484 6.59759 14.2683 5.55646C12.9282 4.46626 13.1082 4.64328 14.7223 2.75821C15.7054 1.61016 16.0984 0.909061 15.9754 0.609342C15.8584 0.323645 15.1353 0.399013 15.1353 0.399013L12.7312 0.411282C12.7312 0.411282 12.5531 0.390249 12.4201 0.459482C12.2911 0.527839 12.2081 0.685586 12.2081 0.685586C12.2081 0.685586 11.8271 1.57423 11.3191 2.32966C10.248 3.92378 9.81894 4.00791 9.64393 3.90888C9.2369 3.6784 9.33891 2.98168 9.33891 2.48741C9.33891 0.942363 9.60593 0.29823 8.81787 0.131719C8.55585 0.0765075 8.36384 0.0396999 7.69479 0.0335653C6.83672 0.0256779 6.10967 0.0361944 5.69864 0.212345C5.42462 0.329779 5.21361 0.591815 5.34262 0.606713C5.50163 0.625117 5.86165 0.691721 6.05267 0.919578C6.29969 1.21316 6.29069 1.87395 6.29069 1.87395C6.29069 1.87395 6.4327 3.69242 5.95966 3.91852C5.63464 4.07364 5.1896 3.75727 4.23453 2.31038C3.7455 1.56985 3.37547 0.750438 3.37547 0.750438C3.37547 0.750438 3.30447 0.597949 3.17746 0.516446C3.02345 0.417416 2.80743 0.385867 2.80743 0.385867L0.521262 0.398136C0.521262 0.398136 0.178236 0.4069 0.0522271 0.53748C-0.0597811 0.654037 0.0432264 0.894163 0.0432264 0.894163C0.0432264 0.894163 1.83336 4.56353 3.85951 6.41355C5.71864 8.10933 7.8288 7.99804 7.8288 7.99804H8.78487C8.78487 7.99804 9.07389 7.96999 9.2209 7.83065C9.35691 7.7027 9.35191 7.46257 9.35191 7.46257C9.35191 7.46257 9.33291 6.33819 9.92895 6.17255C10.516 6.00955 11.2701 7.25925 12.0691 7.74038C12.6732 8.10408 13.1322 8.02433 13.1322 8.02433L15.2693 7.99804C15.2693 7.99804 16.3874 7.93757 15.8574 7.16723Z" fill="white"/>
</svg>
