<svg width="14" height="11" viewBox="0 0 14 11" fill="none" xmlns="http://www.w3.org/2000/svg">
<path d="M13.405 0.995375C13.0252 0.293556 12.6131 0.164466 11.774 0.115375C10.9358 0.0562837 8.82788 0.0317383 7.00175 0.0317383C5.17212 0.0317383 3.06337 0.0562838 2.226 0.114466C1.38862 0.164466 0.975625 0.292647 0.592375 0.995375C0.20125 1.69628 0 2.90356 0 5.02901C0 5.03083 0 5.03174 0 5.03174C0 5.03356 0 5.03447 0 5.03447V5.03628C0 7.15265 0.20125 8.36901 0.592375 9.06265C0.975625 9.76447 1.38775 9.89174 2.22513 9.95083C3.06337 10.0017 5.17212 10.0317 7.00175 10.0317C8.82788 10.0317 10.9358 10.0017 11.7749 9.95174C12.614 9.89265 13.0261 9.76538 13.4059 9.06356C13.8005 8.36992 14 7.15356 14 5.03719C14 5.03719 14 5.03447 14 5.03265C14 5.03265 14 5.03083 14 5.02992C14 2.90356 13.8005 1.69628 13.405 0.995375ZM5.25 7.75901V2.30447L9.625 5.03174L5.25 7.75901Z" fill="white"/>
</svg>
